<?xml version="1.0" encoding="utf-8"?>
<!-- Generator: Adobe Illustrator 22.0.0, SVG Export Plug-In . SVG Version: 6.00 Build 0)  -->
<svg version="1.1" id="Layer_1" xmlns="http://www.w3.org/2000/svg" xmlns:xlink="http://www.w3.org/1999/xlink" x="0px" y="0px"
	 viewBox="0 0 570 225" style="enable-background:new 0 0 570 225;" xml:space="preserve">
<style type="text/css">
	.st0{fill:#F2F2F2;}
	.st1{fill:#3D58A6;}
	.st2{font-family:'Roboto-Regular';}
	.st3{font-size:22px;}
	.st4{fill:none;}
	.st5{fill:#333333;}
	.st6{font-size:20px;}
</style>
<rect class="st0" width="570" height="225"/>
<polyline class="st0" points="570,225 0,225 0,0 570,0 "/>
<text transform="matrix(1.0043 0 0 1 47.7168 34.0504)" class="st1 st2 st3">Responsive Web Design</text>
<g>
	<rect x="200" y="61.2" class="st4" width="355" height="124.3"/>
	<text transform="matrix(1.0043 0 0 1 199.9927 75.4196)"><tspan x="0" y="0" class="st5 st2 st6">approach that suggests that design and </tspan><tspan x="0" y="24" class="st5 st2 st6">development should respond to the </tspan><tspan x="0" y="48" class="st5 st2 st6">user&apos;s behavior and environment based </tspan><tspan x="0" y="72" class="st5 st2 st6">on screen size, platform and orienta</tspan><tspan x="315.2" y="72" class="st5 st2 st6">-</tspan><tspan x="0" y="96" class="st5 st2 st6">tion.</tspan></text>
</g>
<g>
	<path class="st1" d="M76.2,181.8c0.7,0.9,1.8,1.5,3,1.5h48.2c1.6,0,3-1,3.6-2.4c0.1-0.2,1-2.6,1.4-3.6c1-2.8,2-5.8,2.9-9
		c1.5-5.1,2.7-10.1,3.4-14.8c1.6-10.2,1.2-18.4-2.2-24c-3.5-5.8-9.9-10-18.1-13c-4.3-1.5-8.9-2.7-13.4-3.4c-1.6-0.3-2.6-0.4-2.6-0.4
		v-35c0-6.3-5.2-11.5-11.6-11.5h-1.9c-6.4,0-11.6,5.2-11.6,11.5l0,60.6l-12.8-11.2c-8.2-7.2-19.7-5.3-25.1,4.2
		c-0.8,1.5-0.7,3.2,0.3,4.4L76.2,181.8z M48.7,132.1c3.1-2.4,7.3-2.2,10.8,0.8l19.2,16.7c2.5,2.2,6.4,0.4,6.4-2.9V77.7
		c0-2.1,1.7-3.8,3.9-3.8h1.9c2.1,0,3.9,1.7,3.9,3.8v38.4c0,2,1.6,3.7,3.6,3.8c0.2,0,0.7,0.1,1.4,0.1c1.2,0.1,2.5,0.3,4,0.6
		c4.1,0.7,8.3,1.7,12.1,3.1c6.8,2.4,11.7,5.7,14.2,9.7c2.2,3.6,2.6,10.2,1.2,18.8c-0.7,4.4-1.8,9.1-3.2,13.9c-0.9,3-1.8,5.9-2.8,8.6
		c-0.3,0.9-0.3,0.9-0.3,0.9H81.2l-33.7-42.3C47.5,133.3,48,132.6,48.7,132.1z"/>
	<path class="st1" d="M115.3,73.4c-2.4-11.8-12.9-20.7-25.5-20.7c-14.4,0-26,11.6-26,25.9c0,9.6,5.3,18.3,13.6,22.8
		c1.9,1,4.2,0.3,5.2-1.5c1-1.9,0.3-4.2-1.5-5.2c-5.9-3.2-9.6-9.3-9.6-16c0-10.1,8.2-18.2,18.3-18.2s18.3,8.2,18.3,18.2
		c0,6.7-3.6,12.7-9.4,15.9c-1.9,1-2.5,3.4-1.5,5.2s3.4,2.5,5.2,1.5c7.5-4.2,12.4-11.7,13.2-20.2h11.3V85c0,1,0.7,1.4,1.6,0.8
		l10.3-7.4c0.9-0.6,0.9-1.6,0-2.2l-10.3-7.4c-0.9-0.6-1.6-0.3-1.6,0.8v3.8H115.3L115.3,73.4z"/>
</g>
</svg>
