<?xml version="1.0" encoding="utf-8"?>
<!-- Generator: Adobe Illustrator 22.0.0, SVG Export Plug-In . SVG Version: 6.00 Build 0)  -->
<svg version="1.1" id="Layer_1" xmlns="http://www.w3.org/2000/svg" xmlns:xlink="http://www.w3.org/1999/xlink" x="0px" y="0px"
	 viewBox="0 0 570 225" style="enable-background:new 0 0 570 225;" xml:space="preserve">
<style type="text/css">
	.st0{fill:#F2F2F2;}
	.st1{fill:#3D58A6;}
	.st2{font-family:'Roboto-Regular';}
	.st3{font-size:22px;}
	.st4{fill:none;}
	.st5{fill:#333333;}
	.st6{font-size:20px;}
	.st7{fill:#58595B;}
</style>
<rect class="st0" width="570" height="225"/>
<polyline class="st0" points="570,225 0,225 0,0 570,0 "/>
<text transform="matrix(1.0043 0 0 1 47.7168 34.0504)" class="st1 st2 st3">Responsive Web Design</text>
<g>
	<rect x="200" y="61.2" class="st4" width="355" height="124.3"/>
	<text transform="matrix(1.0043 0 0 1 199.9927 75.4196)"><tspan x="0" y="0" class="st5 st2 st6">approach that suggests that design and </tspan><tspan x="0" y="24" class="st5 st2 st6">development should respond to the </tspan><tspan x="0" y="48" class="st5 st2 st6">user&apos;s behavior and environment based </tspan><tspan x="0" y="72" class="st5 st2 st6">on screen size, platform and orienta</tspan><tspan x="315.2" y="72" class="st5 st2 st6">-</tspan><tspan x="0" y="96" class="st5 st2 st6">tion.</tspan></text>
</g>
<g>
	<path class="st1" d="M76.2,181.8c0.7,0.9,1.8,1.5,3,1.5h48.2c1.6,0,3-1,3.6-2.4c0.1-0.2,1-2.6,1.4-3.6c1-2.8,2-5.8,2.9-9
		c1.5-5.1,2.7-10.1,3.4-14.8c1.6-10.2,1.2-18.4-2.2-24c-3.5-5.8-9.9-10-18.1-13c-4.3-1.5-8.9-2.7-13.4-3.4c-1.6-0.3-2.6-0.4-2.6-0.4
		v-35c0-6.3-5.2-11.5-11.6-11.5h-1.9c-6.4,0-11.6,5.2-11.6,11.5l0,60.6l-12.8-11.2c-8.2-7.2-19.7-5.3-25.1,4.2
		c-0.8,1.5-0.7,3.2,0.3,4.4L76.2,181.8z M48.7,132.1c3.1-2.4,7.3-2.2,10.8,0.8l19.2,16.7c2.5,2.2,6.4,0.4,6.4-2.9V77.7
		c0-2.1,1.7-3.8,3.9-3.8h1.9c2.1,0,3.9,1.7,3.9,3.8v38.4c0,2,1.6,3.7,3.6,3.8c0.2,0,0.7,0.1,1.4,0.1c1.2,0.1,2.5,0.3,4,0.6
		c4.1,0.7,8.3,1.7,12.1,3.1c6.8,2.4,11.7,5.7,14.2,9.7c2.2,3.6,2.6,10.2,1.2,18.8c-0.7,4.4-1.8,9.1-3.2,13.9c-0.9,3-1.8,5.9-2.8,8.6
		c-0.3,0.9-0.3,0.9-0.3,0.9H81.2l-33.7-42.3C47.5,133.3,48,132.6,48.7,132.1z"/>
	<path class="st1" d="M115.3,73.4c-2.4-11.8-12.9-20.7-25.5-20.7c-14.4,0-26,11.6-26,25.9c0,9.6,5.3,18.3,13.6,22.8
		c1.9,1,4.2,0.3,5.2-1.5c1-1.9,0.3-4.2-1.5-5.2c-5.9-3.2-9.6-9.3-9.6-16c0-10.1,8.2-18.2,18.3-18.2s18.3,8.2,18.3,18.2
		c0,6.7-3.6,12.7-9.4,15.9c-1.9,1-2.5,3.4-1.5,5.2s3.4,2.5,5.2,1.5c7.5-4.2,12.4-11.7,13.2-20.2h11.3V85c0,1,0.7,1.4,1.6,0.8
		l10.3-7.4c0.9-0.6,0.9-1.6,0-2.2l-10.3-7.4c-0.9-0.6-1.6-0.3-1.6,0.8v3.8H115.3L115.3,73.4z"/>
</g>
<rect class="st0" width="570" height="225"/>
<text transform="matrix(1.0043 0 0 1 17.6152 34.0504)" class="st1 st2 st3">App Development</text>
<g>
	<rect x="201.1" y="57.5" class="st4" width="353.5" height="137.8"/>
	<text transform="matrix(1.0043 0 0 1 201.0659 71.6764)"><tspan x="0" y="0" class="st7 st2 st6">Mobile application development is the </tspan><tspan x="0" y="24" class="st7 st2 st6">process of making or creating a mobile </tspan><tspan x="0" y="48" class="st7 st2 st6">application to run on various mobile </tspan><tspan x="0" y="72" class="st7 st2 st6">platforms. A mobile platform is a </tspan><tspan x="0" y="96" class="st7 st2 st6">mobile operating system.</tspan></text>
</g>
<path class="st1" d="M147.4,143.9c-0.8-0.7-2.1-0.6-2.8,0.2l-13.7,16.1l-8.7-6.9c-0.9-0.7-2.1-0.5-2.8,0.3c-0.7,0.9-0.5,2.1,0.3,2.8
	l10.2,8.1c0.4,0.3,0.8,0.4,1.2,0.4c0.6,0,1.1-0.2,1.5-0.7l14.9-17.5C148.4,145.8,148.3,144.6,147.4,143.9z M133.6,177.1
	c-1.1,0-2,0.9-2,2c0,3.3-2.7,5.9-5.9,5.9H73.2c-3.3,0-5.9-2.6-5.9-5.9V71.2c0-3.3,2.7-5.9,5.9-5.9h52.5c3.3,0,5.9,2.6,5.9,5.9v60.3
	c0,1.1,0.9,2,2,2s2-0.9,2-2V97.8c1.5-0.3,2.6-1.6,2.6-3.2V86c0-1.6-1.1-2.9-2.6-3.2V71.2c0-5.4-4.4-9.8-9.9-9.8H73.2
	c-5.5,0-9.9,4.4-9.9,9.8V179c0,5.4,4.4,9.8,9.9,9.8h52.5c5,0,9.2-3.7,9.8-8.6c0.1-0.2,0.1-0.4,0.1-0.6V179
	C135.5,177.9,134.7,177.1,133.6,177.1z M109.3,71.4c1.1,0,2-0.9,2-2s-0.9-2-2-2H89.5c-1.1,0-2,0.9-2,2s0.9,2,2,2H109.3z M93.9,178.1
	c0,3,2.5,5.5,5.5,5.5s5.5-2.5,5.5-5.5c0-3-2.5-5.5-5.5-5.5S93.9,175.1,93.9,178.1z M101,178.1c0,0.8-0.7,1.5-1.5,1.5
	c-0.9,0-1.5-0.7-1.5-1.5s0.7-1.5,1.5-1.5C100.3,176.6,101,177.3,101,178.1z M123,133.3c1.2,0,2.2-1,2.2-2.2V87.1
	c0-3.7-3.5-6.9-7.6-6.9H81.9c-4.2,0-7.6,3.4-7.6,7.5v73.5c0,4.2,3.4,7.5,7.6,7.5h31.2c1.2,0,2.2-1,2.2-2.2s-1-2.2-2.2-2.2H81.9
	c-1.8,0-3.2-1.4-3.2-3.2V87.7c0-1.8,1.4-3.2,3.2-3.2h35.7c1.9,0,3.2,1.5,3.2,2.5v44.1C120.9,132.3,121.8,133.3,123,133.3z"/>
</svg>
